<?xml version="1.0" encoding="UTF-8"?>
<svg width="37px" height="36px" viewBox="0 0 37 36" version="1.1" xmlns="http://www.w3.org/2000/svg" xmlns:xlink="http://www.w3.org/1999/xlink">
    <!-- Generator: Sketch 45.1 (43504) - http://www.bohemiancoding.com/sketch -->
    <title>arrow_iconwhite</title>
    <desc>Created with Sketch.</desc>
    <defs></defs>
    <g id="Page-1" stroke="none" stroke-width="1" fill="none" fill-rule="evenodd">
        <g id="Homepage" transform="translate(-622.000000, -494.000000)">
            <g id="section1" transform="translate(121.000000, 145.000000)">
                <g id="arrow_iconwhite" transform="translate(501.000000, 349.000000)">
                    <ellipse id="Oval-3" fill="#FFFFFF" cx="18.9196366" cy="18.0154272" rx="17.9827071" ry="17.9845728"></ellipse>
                    <path d="M28.0347518,17.0265307 L22.0405188,10.6567126 C21.6343346,10.2916635 20.855459,10.1409678 20.4014708,10.563043 C19.954301,10.9787488 19.9676007,11.7849818 20.4130846,12.2023361 L24.6277797,16.6752847 L12.3366808,16.6752847 C11.715978,16.6752847 11.2127621,17.1785377 11.2127621,17.7993424 C11.2127621,18.4201471 11.715978,18.9234152 12.3366808,18.9234152 L24.6277797,18.9234152 L20.4130846,23.3963637 C20.0295661,23.7805965 19.9586843,24.6151927 20.4014708,25.0356568 C20.8441449,25.4560835 21.6510061,25.3217612 22.0405188,24.9419497 L28.0347518,18.5721542 C28.239867,18.3541662 28.3398208,18.0984107 28.3391465,17.7993424 C28.3286566,17.5314473 28.2184002,17.2218131 28.0347518,17.0265307 Z" id="Shape" fill="#000000"></path>
                </g>
            </g>
        </g>
    </g>
</svg>