<?xml version="1.0" encoding="UTF-8"?>
<svg width="18px" height="15px" viewBox="0 0 18 15" version="1.1" xmlns="http://www.w3.org/2000/svg" xmlns:xlink="http://www.w3.org/1999/xlink">
    <!-- Generator: Sketch 45 (43475) - http://www.bohemiancoding.com/sketch -->
    <title>Shape</title>
    <desc>Created with Sketch.</desc>
    <defs></defs>
    <g id="Page-1" stroke="none" stroke-width="1" fill="none" fill-rule="evenodd">
        <g id="Collaborations" transform="translate(-933.000000, -2334.000000)" fill="#000000">
            <g id="section3" transform="translate(433.000000, 1731.000000)">
                <g id="cta" transform="translate(378.000000, 586.000000)">
                    <path d="M138.82199,23.7187775 L132.827757,17.3489594 C132.421573,16.9839103 131.642697,16.8332146 131.188709,17.2552898 C130.741539,17.6709956 130.754839,18.4772286 131.200322,18.8945829 L135.415018,23.3675315 L123.123919,23.3675315 C122.503216,23.3675315 122,23.8707845 122,24.4915892 C122,25.1123939 122.503216,25.615662 123.123919,25.615662 L135.415018,25.615662 L131.200322,30.0886105 C130.816804,30.4728433 130.745922,31.3074395 131.188709,31.7279036 C131.631383,32.1483303 132.438244,32.0140081 132.827757,31.6341965 L138.82199,25.264401 C139.027105,25.046413 139.127059,24.7906576 139.126384,24.4915892 C139.115894,24.2236942 139.005638,23.9140599 138.82199,23.7187775 Z" id="Shape"></path>
                </g>
            </g>
        </g>
    </g>
</svg>