<?xml version="1.0" encoding="utf-8"?>
<!-- Generator: Adobe Illustrator 21.0.2, SVG Export Plug-In . SVG Version: 6.00 Build 0)  -->
<svg version="1.1" id="Layer_1" xmlns="http://www.w3.org/2000/svg" xmlns:xlink="http://www.w3.org/1999/xlink" x="0px" y="0px"
	 viewBox="0 0 36 36" style="enable-background:new 0 0 36 36;" xml:space="preserve">
<style type="text/css">
	.st0{fill:#7ED321;}
</style>
<title>arrow</title>
<desc>Created with Sketch.</desc>
<g id="Page-1">
	<g id="Collaborations" transform="translate(-341.000000, -1366.000000)">
		<g id="section2" transform="translate(140.000000, 1050.000000)">
			<g id="arrow" transform="translate(19.000000, 316.000000)">
				<ellipse id="Oval-3" class="st0" cx="200" cy="18" rx="18" ry="18"/>
				<path id="Shape" d="M208.8,16.7l-6-6.4c-0.4-0.4-1.2-0.5-1.6-0.1c-0.4,0.4-0.4,1.2,0,1.6l4.2,4.5h-12.3c-0.6,0-1.1,0.5-1.1,1.1
					c0,0.6,0.5,1.1,1.1,1.1h12.3l-4.2,4.5c-0.4,0.4-0.5,1.2,0,1.6c0.4,0.4,1.2,0.3,1.6-0.1l6-6.4c0.2-0.2,0.3-0.5,0.3-0.8
					C209.1,17.2,209,16.9,208.8,16.7z"/>
			</g>
		</g>
	</g>
</g>
</svg>
