<?xml version="1.0" encoding="UTF-8"?>
<svg width="439px" height="439px" viewBox="0 0 439 439" version="1.1" xmlns="http://www.w3.org/2000/svg" xmlns:xlink="http://www.w3.org/1999/xlink">
    <!-- Generator: Sketch 45.1 (43504) - http://www.bohemiancoding.com/sketch -->
    <title>Shape</title>
    <desc>Created with Sketch.</desc>
    <defs></defs>
    <g id="Page-1" stroke="none" stroke-width="1" fill="none" fill-rule="evenodd">
        <g id="instagram-symbol" fill-rule="nonzero" fill="#FFFFFF">
            <path d="M421.981,16.562 C410.941,5.519 397.711,0 382.298,0 L56.248,0 C40.83,0 27.604,5.521 16.561,16.562 C5.52,27.6 0.001,40.828 0.001,56.243 L0.001,382.29 C0.001,397.703 5.519,410.934 16.561,421.973 C27.604,433.013 40.833,438.536 56.248,438.536 L382.294,438.536 C397.704,438.536 410.938,433.013 421.978,421.973 C433.021,410.934 438.535,397.703 438.535,382.29 L438.535,56.243 C438.534,40.825 433.021,27.604 421.981,16.562 Z M157.462,158.025 C174.686,141.373 195.386,133.043 219.559,133.043 C243.919,133.043 264.712,141.373 281.94,158.025 C299.168,174.68 307.777,194.81 307.777,218.411 C307.777,242.009 299.168,262.14 281.94,278.79 C264.712,295.449 243.926,303.778 219.559,303.778 C195.387,303.778 174.689,295.442 157.462,278.79 C140.234,262.138 131.621,242.009 131.621,218.411 C131.621,194.81 140.234,174.681 157.462,158.025 Z M388.865,370.589 C388.865,375.534 387.147,379.672 383.724,383.005 C380.291,386.335 376.205,388.001 371.442,388.001 L66.242,388.001 C61.294,388.001 57.151,386.335 53.823,383.005 C50.49,379.679 48.825,375.534 48.825,370.589 L48.825,185.575 L89.08,185.575 C85.275,197.568 83.372,210.037 83.372,222.977 C83.372,259.53 96.694,290.692 123.341,316.488 C149.991,342.274 182.062,355.173 219.558,355.173 C244.302,355.173 267.141,349.27 288.085,337.47 C309.022,325.663 325.571,309.631 337.761,289.358 C349.944,269.086 356.035,246.958 356.035,222.978 C356.035,210.038 354.125,197.572 350.32,185.576 L388.867,185.576 L388.867,370.59 L388.865,370.59 L388.865,370.589 Z M388.865,115.626 C388.865,121.146 386.962,125.81 383.149,129.616 C379.344,133.425 374.683,135.327 369.16,135.327 L319.484,135.327 C313.967,135.327 309.299,133.424 305.494,129.616 C301.688,125.81 299.786,121.146 299.786,115.626 L299.786,68.522 C299.786,63.192 301.688,58.577 305.494,54.674 C309.3,50.773 313.968,48.82 319.484,48.82 L369.16,48.82 C374.683,48.82 379.345,50.772 383.149,54.674 C386.961,58.577 388.865,63.192 388.865,68.522 L388.865,115.626 Z" id="Shape"></path>
        </g>
    </g>
</svg>