<?xml version="1.0" encoding="UTF-8"?>
<svg width="63px" height="63px" viewBox="0 0 63 63" version="1.1" xmlns="http://www.w3.org/2000/svg" xmlns:xlink="http://www.w3.org/1999/xlink">
    <!-- Generator: Sketch 45.1 (43504) - http://www.bohemiancoding.com/sketch -->
    <title>logo</title>
    <desc>Created with Sketch.</desc>
    <defs>
        <polygon id="path-1" points="2.43785935 54.9279924 65.9141973 54.9279924 65.9141973 6.76435407 2.43785935 6.76435407"></polygon>
    </defs>
    <g id="Page-1" stroke="none" stroke-width="1" fill="none" fill-rule="evenodd">
        <g id="Collaborations" transform="translate(-608.000000, -21.000000)">
            <g id="header">
                <g id="logo" transform="translate(608.000000, 21.000000)">
                    <ellipse id="Oval" fill="#FFFFFF" cx="31.0588235" cy="31.5" rx="31.0588235" ry="31.5"></ellipse>
                    <mask id="mask-2" fill="white">
                        <use xlink:href="#path-1"></use>
                    </mask>
                    <g id="Clip-2"></g>
                    <path d="M51.7721752,32.7167296 C51.7721752,33.948881 52.6236983,34.9771067 53.757982,35.2226773 L52.3939036,37.818045 L43.2792198,37.818045 L41.778106,37.818045 L47.694009,29.0197822 L52.5486633,30.8658953 C52.0710738,31.3323738 51.7721752,31.9882622 51.7721752,32.7167296 L51.7721752,32.7167296 Z M41.9009344,25.7706399 C41.9009344,26.869542 41.0290663,27.7603608 39.9535416,27.7603608 C38.8780169,27.7603608 38.0061488,26.869542 38.0061488,25.7706399 C38.0061488,24.6718083 38.8780169,23.7809191 39.9535416,23.7809191 C41.0290663,23.7809191 41.9009344,24.6718083 41.9009344,25.7706399 L41.9009344,25.7706399 Z M39.4756762,39.0541425 L31.8019679,50.4636982 L26.0633764,41.9696328 L26.0177899,41.9055096 C25.9062029,41.7727535 25.7408225,41.6886888 25.5561315,41.6886888 L25.5059933,41.688125 L13.9020508,41.688125 L12.9044577,41.688125 L14.6241938,39.0541425 L15.8117882,39.0541425 L39.4756762,39.0541425 Z M56.9411765,31.6434769 C56.9411765,31.3759212 56.7755891,31.1478259 56.5434496,31.0603788 L47.7985614,27.7383757 L39.6466429,19.4093395 L39.6023667,19.3633258 C39.3798135,19.1336098 39.0710527,18.9913409 38.729671,18.9913409 L29.7940919,18.9913409 L22.9945276,14.5976353 L22.94101,14.5638121 C22.6454907,14.3873677 22.3016263,14.2861799 21.9346582,14.2861799 C21.5637591,14.2861799 21.2164463,14.3894816 20.9188581,14.5695198 C20.3314747,14.924734 8.19214924,22.5546867 8.19214924,22.5546867 C7.83035363,22.7729874 7.58773126,23.1754131 7.58773126,23.6357611 C7.58773126,24.3286437 8.13752817,24.8903204 8.8156708,24.8903204 L9.53105506,24.8898271 L7.72200805,25.852168 C7.33428123,26.0630698 7.0702794,26.4801523 7.0702794,26.9603009 C7.0702794,27.6531835 7.62007631,28.2148602 8.29821894,28.2148602 L12.5107309,27.997687 C12.463903,28.1304431 12.4383855,28.273628 12.4383855,28.422873 C12.4383855,29.115826 12.9881135,29.6775027 13.6662561,29.6775027 L15.6875115,29.6038667 L15.6877184,29.6040077 C15.6877184,30.2968903 16.2375153,30.858567 16.9156579,30.858567 L18.5797384,30.8156538 L11.2552049,41.9782295 C11.19617,42.0739915 11.1621008,42.1873697 11.1621008,42.3088514 C11.1621008,42.6519456 11.4343096,42.9300711 11.770174,42.9300711 L25.236819,42.9300711 L31.3138956,51.9238039 C31.424517,52.0779814 31.6031389,52.1781122 31.8046576,52.1781122 C31.9908658,52.1781122 32.1575566,52.0925676 32.2691436,51.9578385 L40.9483071,39.0541425 L52.6123879,39.0541425 L52.7543889,39.0535787 C52.9692869,39.0535787 53.1581848,38.9396368 53.2663234,38.7676317 L56.8787622,31.9179381 C56.9186936,31.8351417 56.9411765,31.741987 56.9411765,31.6434769 L56.9411765,31.6434769 Z" id="Fill-1" fill="#000000" mask="url(#mask-2)"></path>
                </g>
            </g>
        </g>
    </g>
</svg>