<?xml version="1.0" encoding="UTF-8"?>
<svg width="5121px" height="3848px" viewBox="0 0 5121 3848" version="1.1" xmlns="http://www.w3.org/2000/svg" xmlns:xlink="http://www.w3.org/1999/xlink">
    <!-- Generator: Sketch 45.1 (43504) - http://www.bohemiancoding.com/sketch -->
    <title>Shape</title>
    <desc>Created with Sketch.</desc>
    <defs></defs>
    <g id="Page-1" stroke="none" stroke-width="1" fill="none" fill-rule="evenodd">
        <g id="noun_950960_cc" transform="translate(-853.000000, 0.000000)" fill="#000000">
            <path d="M2638,2531 L1829,1722 C1564,1457 1343,1396 1182,1447 C1117,1467 1060,1506 1013,1556 C964,1608 926,1673 899,1744 C825,1938 838,2171 968,2301 L2169,3502 C2399,3732 2555,3848 2698,3848 L2698,3848 C2842,3848 2997,3733 3227,3503 L5859,871 C5989,741 6002,509 5928,314 C5901,243 5862,178 5814,126 C5767,76 5710,38 5645,17 C5483,-34 5263,27 4998,292 L2759,2531 L2699,2591 L2639,2531 L2638,2531 Z" id="Shape"></path>
        </g>
    </g>
</svg>